<svg width="1356" height="567" viewBox="0 0 1356 567" fill="none" xmlns="http://www.w3.org/2000/svg">
<rect x="2.32715" y="44.0303" width="1351.67" height="520.511" fill="#393939" stroke="#181818" stroke-width="4"/>
<rect x="0.327148" y="0.0117188" width="358.349" height="46" fill="#181818"/>
<path d="M342.453 0.0117188L313.896 0.0117313L353.147 46.0117L381.704 46.0117L342.453 0.0117188Z" fill="#181818"/>
<path d="M361.001 0.0117188L332.699 0.0117313L371.6 46.0117L399.901 46.0117L361.001 0.0117188Z" fill="#181818"/>
<path d="M385.532 39.9524L367.736 39.9524L339.452 5.96778L357.248 5.96777L385.532 39.9524Z" fill="#94EF18" stroke="#528418" stroke-width="4"/>
<path d="M355.651 39.9524L337.856 39.9524L309.571 5.96778L327.367 5.96777L355.651 39.9524Z" fill="#94EF18" stroke="#528418" stroke-width="4"/>
<path d="M325.1 39.9524L307.304 39.9524L279.02 5.96778L296.815 5.96777L325.1 39.9524Z" fill="#94EF18" stroke="#528418" stroke-width="4"/>
</svg>
